<?xml version="1.0" encoding="UTF-8"?>
<svg width="593px" height="228px" viewBox="0 0 593 228" version="1.1" xmlns="http://www.w3.org/2000/svg" xmlns:xlink="http://www.w3.org/1999/xlink">
    <title>Logo</title>
    <defs>
        <linearGradient x1="75.7738629%" y1="6.80406958%" x2="71.8313413%" y2="93.6868042%" id="linearGradient-1">
            <stop stop-color="#3AD800" offset="0%"></stop>
            <stop stop-color="#009014" offset="100%"></stop>
        </linearGradient>
        <linearGradient x1="56.3106796%" y1="39.11692%" x2="58.7378641%" y2="59.6212736%" id="linearGradient-2">
            <stop stop-color="#3AD800" offset="0%"></stop>
            <stop stop-color="#009014" offset="100%"></stop>
            <stop stop-color="#009014" offset="100%"></stop>
        </linearGradient>
    </defs>
    <g id="Page-1" stroke="none" stroke-width="1" fill="none" fill-rule="evenodd">
        <g id="Artboard" transform="translate(-373.000000, -153.000000)">
            <rect fill="#EDF3FA" x="0" y="0" width="1338" height="534"></rect>
            <g id="Logo" transform="translate(373.000000, 153.000000)" fill-rule="nonzero">
                <text id=".today" fill="#2C3E50" font-family="Avenir-Light, Avenir" font-size="48" font-weight="300">
                    <tspan x="458.079654" y="162">.today</tspan>
                </text>
                <g id="leaf" transform="translate(61.058942, 98.500000) scale(1, -1) rotate(-161.000000) translate(-61.058942, -98.500000) translate(14.558942, 46.000000)" fill="url(#linearGradient-1)">
                    <path d="M43.4544233,91.9733284 C53.8662971,103.441402 66.1905558,104.184703 80.4271998,94.2032315 C101.782165,79.2310248 90.2510985,7.69383253 86.6770196,0 C83.5611557,4.57966222 78.530752,7.84148517 71.5858078,9.78546882 C43.4821138,19.1298249 25.9242276,29.323668 18.9121493,40.3669979 C11.900071,51.4103279 10.6251478,61.0732418 15.0873794,69.3557392 C20.4706678,76.7887499 26.7390408,81.9918569 33.8924984,84.9650614 C17.1379099,99.4516052 0,95.1788932 0,101.00875 C0,106.838607 7.78995906,105.434431 15.0873794,102.167171 C22.3847997,98.8999118 35.8999305,91.890022 51.7414249,74.7712181 C67.5829193,57.6524144 74.6512384,40.3669979 77.8773532,34.3144037 C73.2182025,55.0740937 61.7438928,74.2937352 43.4544233,91.9733284 Z" id="Path-2-Copy-4"></path>
                </g>
                <text id="envest" fill="url(#linearGradient-2)" font-family="Cookie-Regular, Cookie" font-size="204.81203" font-weight="normal">
                    <tspan x="105.597349" y="162">envest</tspan>
                </text>
            </g>
        </g>
    </g>
</svg>